<svg width="1440" height="856" viewBox="0 0 1440 856" fill="none" xmlns="http://www.w3.org/2000/svg">
<g clip-path="url(#clip0_65_55)">
<rect width="1440" height="855.613" fill="#F5F5F5" style="fill:#F5F5F5;fill:color(display-p3 0.9625 0.9625 0.9625);fill-opacity:1;"/>
<path opacity="0.4" d="M270.983 -84.8184C-11.1643 -84.8184 -240 144.808 -240 427.93C-240 711.052 -11.1643 940.818 270.983 940.818C553.13 940.818 781.966 711.192 781.966 427.93C781.966 144.668 553.13 -84.8184 270.983 -84.8184ZM263.884 128.326C280.03 139.78 294.228 153.747 311.906 170.229C315.247 173.162 318.309 176.794 330.001 172.743C353.943 165.62 408.785 138.523 448.038 134.891C465.855 132.517 470.588 134.891 481.306 144.529C501.906 162.128 517.218 175.118 529.885 189.085C489.379 193.694 476.295 197.047 467.525 199.142L463.35 200.12H462.514C444.141 205.008 438.434 217.719 436.903 223.026C436.207 225.261 435.65 228.334 435.65 231.966C435.65 237.832 437.599 245.235 443.306 252.917C453.467 269.538 459.174 280.992 462.793 289.651C424.932 301.384 383.452 317.307 365.217 325.548C353.943 330.716 345.73 340.773 343.364 352.505C342.946 354.321 342.668 356.696 342.668 359.35C342.668 366.613 344.895 376.53 353.943 386.307C381.921 416.337 413.657 484.918 413.657 560.203C413.657 576.545 412.126 593.166 408.785 609.927C393.056 688.146 340.58 747.647 252.888 787.036C207.371 807.428 161.019 811.758 114.111 810.082C116.755 809.803 119.4 809.523 121.906 809.244C210.016 798.489 271.818 767.9 314.69 691.498C373.848 586.043 329.027 456.703 240.36 383.374C215.166 362.562 186.074 346.499 158.096 329.738C150.997 325.548 147.1 319.263 156.008 308.508C170.484 287.836 194.704 255.71 235.071 223.445C243.422 217.439 239.943 212.69 236.323 207.941C221.986 196.069 212.521 188.806 194.704 178.051C185.239 173.302 181.342 168.274 188.719 161.429C197.627 153.328 211.547 141.176 245.232 126.79C252.331 122.32 259.847 125.114 264.023 128.606L263.884 128.326ZM-68.7909 219.534C-61.8312 205.567 -45.267 174.559 -30.3732 155.842C-26.7541 151.373 -23.6918 149.557 -15.7577 150.954C-1.42069 153.468 24.0519 164.083 57.1802 173.442C63.3047 175.118 66.9238 175.118 72.074 169.251C85.5758 154.027 123.715 118.828 185.657 92.9885C192.616 90.0553 201.942 89.9156 210.433 94.1059C217.95 97.7374 226.162 101.369 235.906 106.258C206.536 119.527 191.224 131.539 179.254 142.434C169.093 151.792 166.865 161.709 166.865 168.693C166.865 170.369 166.865 171.765 167.144 173.023C168.814 184.616 176.331 193.974 189.415 201.097L191.085 202.075C190.528 201.796 189.972 201.377 189.415 201.097C198.88 206.824 205.561 211.294 212.104 216.043C178.558 245.374 157.122 273.728 143.202 293.562C132.902 306.692 132.206 318.425 133.459 326.107C134.712 333.789 139.166 344.544 152.946 352.785L167.005 361.165C190.389 374.993 212.521 388.123 232.008 404.185C307.452 466.76 355.195 581.294 300.214 679.346C263.327 745.133 209.877 779.074 127.056 789.131C96.8506 792.902 68.0374 790.248 41.4512 783.404C52.4476 784.801 63.7223 785.499 75.5538 785.22C137.913 784.103 203.334 762.593 237.437 708.817C322.624 574.31 224.77 435.193 92.2572 391.196C62.1912 381.139 13.0555 370.384 -25.919 365.495C-40.256 363.679 -43.7358 359.21 -39.2816 349.433C-31.4867 332.113 -15.8969 298.591 12.2204 255.99C13.4731 254.174 12.9163 249.425 7.48773 247.889C-6.8493 243.838 -36.6369 235.737 -60.5783 232.105C-69.0692 230.848 -72.2707 226.798 -68.6517 219.814L-68.7909 219.534ZM341.137 889.697C46.1838 935.092 -103.729 712.728 -103.729 712.728C-36.0801 778.515 79.0337 885.367 253.584 804.356C507.057 690.52 432.309 436.45 363.13 362.003C354.778 353.064 360.207 345.661 366.053 342.868C385.957 333.789 438.851 313.536 480.61 302.222C485.342 300.686 486.317 298.311 483.811 292.305C480.192 281.83 476.156 266.046 455.276 232.245C448.734 225.121 451.657 220.931 458.895 219.115C468.082 217.16 475.738 213.528 528.493 207.802C534.2 206.964 540.324 209.198 542.83 213.808C554.104 233.921 562.317 254.314 570.251 280.573C571.086 283.226 575.123 288.534 579.716 288.674C599.064 289.512 669.079 289.931 705.687 297.334C708.61 298.032 715.013 301.524 716.544 305.714C726.427 335.186 748.002 477.375 685.643 627.526C614.236 799.467 475.738 868.746 341.276 889.558L341.137 889.697Z" fill="#E4E4E4" style="fill:#E4E4E4;fill:color(display-p3 0.8958 0.8958 0.8958);fill-opacity:1;"/>
</g>
<defs>
<clipPath id="clip0_65_55">
<rect width="1440" height="855.613" fill="white" style="fill:white;fill-opacity:1;"/>
</clipPath>
</defs>
</svg>
